<svg xmlns="http://www.w3.org/2000/svg" xmlns:xlink="http://www.w3.org/1999/xlink" width="24px" height="24px" viewBox="0 0 24 24" version="1.1">
<g id="surface1">
<path style=" stroke:none;fill-rule:nonzero;fill:#ffffff;fill-opacity:1;" d="M 18.25 13.410156 C 17.464844 15.003906 16.398438 16.589844 15.308594 18.015625 C 14.273438 19.359375 13.171875 20.644531 12 21.871094 C 10.828125 20.644531 9.726562 19.359375 8.691406 18.015625 C 7.601562 16.589844 6.535156 15.003906 5.75 13.410156 C 4.957031 11.800781 4.5 10.292969 4.5 9 C 4.5 4.859375 7.859375 1.5 12 1.5 C 16.140625 1.5 19.5 4.859375 19.5 9 C 19.5 10.292969 19.042969 11.800781 18.25 13.410156 M 12 24 C 12 24 21 15.472656 21 9 C 21 4.03125 16.96875 0 12 0 C 7.03125 0 3 4.03125 3 9 C 3 15.472656 12 24 12 24 "/>
<path style=" stroke:none;fill-rule:nonzero;fill:#ffffff;fill-opacity:1;" d="M 12 12 C 10.34375 12 9 10.65625 9 9 C 9 7.34375 10.34375 6 12 6 C 13.65625 6 15 7.34375 15 9 C 15 10.65625 13.65625 12 12 12 M 12 13.5 C 14.484375 13.5 16.5 11.484375 16.5 9 C 16.5 6.515625 14.484375 4.5 12 4.5 C 9.515625 4.5 7.5 6.515625 7.5 9 C 7.5 11.484375 9.515625 13.5 12 13.5 "/>
</g>
</svg>