<svg xmlns="http://www.w3.org/2000/svg" xmlns:xlink="http://www.w3.org/1999/xlink" width="24px" height="24px" viewBox="0 0 24 24" version="1.1">
<g id="surface1">
<path style=" stroke:none;fill-rule:nonzero;fill:#eaa87a;fill-opacity:1;" d="M 13.5 0 L 16.46875 0 C 16.6875 1.074219 17.28125 2.425781 18.324219 3.769531 C 19.34375 5.082031 20.695312 6 22.5 6 L 22.5 9 C 19.871094 9 17.894531 7.777344 16.5 6.257812 L 16.5 16.5 C 16.5 20.640625 13.140625 24 9 24 C 4.859375 24 1.5 20.640625 1.5 16.5 C 1.5 12.359375 4.859375 9 9 9 L 9 12 C 6.515625 12 4.5 14.015625 4.5 16.5 C 4.5 18.984375 6.515625 21 9 21 C 11.484375 21 13.5 18.984375 13.5 16.5 Z M 13.5 0 "/>
</g>
</svg>